<mxfile host="app.diagrams.net" agent="Mozilla/5.0 (Windows NT 10.0; Win64; x64) AppleWebKit/537.36 (KHTML, like Gecko) Chrome/134.0.0.0 Safari/537.36" version="26.1.1">
  <diagram name="Strona-1" id="nC4z3JAqYvWtiSIst8z0">
    <mxGraphModel dx="2261" dy="1949" grid="1" gridSize="10" guides="1" tooltips="1" connect="1" arrows="1" fold="1" page="1" pageScale="1" pageWidth="827" pageHeight="1169" math="0" shadow="0">
      <root>
        <mxCell id="0" />
        <mxCell id="1" parent="0" />
        <mxCell id="bSxx0ze4oYwnSJ1vdIZ4-1" value="Loguj się" style="ellipse;whiteSpace=wrap;html=1;" parent="1" vertex="1">
          <mxGeometry x="380" y="250" width="120" height="80" as="geometry" />
        </mxCell>
        <mxCell id="HPxKPCvTElO1WmBpE9tU-41" style="edgeStyle=orthogonalEdgeStyle;rounded=0;orthogonalLoop=1;jettySize=auto;html=1;exitX=0;exitY=0;exitDx=0;exitDy=0;entryX=1;entryY=1;entryDx=0;entryDy=0;dashed=1;" edge="1" parent="1" source="bSxx0ze4oYwnSJ1vdIZ4-2" target="bSxx0ze4oYwnSJ1vdIZ4-6">
          <mxGeometry relative="1" as="geometry">
            <Array as="points">
              <mxPoint x="238" y="300" />
              <mxPoint x="142" y="300" />
            </Array>
          </mxGeometry>
        </mxCell>
        <mxCell id="HPxKPCvTElO1WmBpE9tU-42" value="&amp;lt;&amp;lt;Include&amp;gt;&amp;gt;" style="edgeLabel;html=1;align=center;verticalAlign=middle;resizable=0;points=[];" vertex="1" connectable="0" parent="HPxKPCvTElO1WmBpE9tU-41">
          <mxGeometry x="-0.1309" y="1" relative="1" as="geometry">
            <mxPoint as="offset" />
          </mxGeometry>
        </mxCell>
        <mxCell id="bSxx0ze4oYwnSJ1vdIZ4-2" value="Zarządzaj przesyłkami" style="ellipse;whiteSpace=wrap;html=1;" parent="1" vertex="1">
          <mxGeometry x="220" y="350" width="120" height="80" as="geometry" />
        </mxCell>
        <mxCell id="HPxKPCvTElO1WmBpE9tU-4" style="edgeStyle=orthogonalEdgeStyle;rounded=0;orthogonalLoop=1;jettySize=auto;html=1;exitX=0;exitY=0;exitDx=0;exitDy=0;entryX=1;entryY=1;entryDx=0;entryDy=0;dashed=1;" edge="1" parent="1" source="bSxx0ze4oYwnSJ1vdIZ4-3" target="bSxx0ze4oYwnSJ1vdIZ4-1">
          <mxGeometry relative="1" as="geometry" />
        </mxCell>
        <mxCell id="HPxKPCvTElO1WmBpE9tU-5" value="&amp;lt;&amp;lt;Include&amp;gt;&amp;gt;" style="edgeLabel;html=1;align=center;verticalAlign=middle;resizable=0;points=[];" vertex="1" connectable="0" parent="HPxKPCvTElO1WmBpE9tU-4">
          <mxGeometry x="-0.215" y="4" relative="1" as="geometry">
            <mxPoint as="offset" />
          </mxGeometry>
        </mxCell>
        <mxCell id="bSxx0ze4oYwnSJ1vdIZ4-3" value="Zarządzaj nadaniem" style="ellipse;whiteSpace=wrap;html=1;" parent="1" vertex="1">
          <mxGeometry x="470" y="370" width="120" height="80" as="geometry" />
        </mxCell>
        <mxCell id="HPxKPCvTElO1WmBpE9tU-2" style="edgeStyle=orthogonalEdgeStyle;rounded=0;orthogonalLoop=1;jettySize=auto;html=1;exitX=0;exitY=0;exitDx=0;exitDy=0;entryX=1;entryY=1;entryDx=0;entryDy=0;dashed=1;" edge="1" parent="1" source="bSxx0ze4oYwnSJ1vdIZ4-4" target="bSxx0ze4oYwnSJ1vdIZ4-3">
          <mxGeometry relative="1" as="geometry" />
        </mxCell>
        <mxCell id="HPxKPCvTElO1WmBpE9tU-3" value="&amp;lt;&amp;lt;Extend&amp;gt;&amp;gt;" style="edgeLabel;html=1;align=center;verticalAlign=middle;resizable=0;points=[];" vertex="1" connectable="0" parent="HPxKPCvTElO1WmBpE9tU-2">
          <mxGeometry x="0.0107" y="-1" relative="1" as="geometry">
            <mxPoint as="offset" />
          </mxGeometry>
        </mxCell>
        <mxCell id="bSxx0ze4oYwnSJ1vdIZ4-4" value="Rejestracja paczki" style="ellipse;whiteSpace=wrap;html=1;" parent="1" vertex="1">
          <mxGeometry x="620" y="500" width="120" height="80" as="geometry" />
        </mxCell>
        <mxCell id="HPxKPCvTElO1WmBpE9tU-13" style="edgeStyle=orthogonalEdgeStyle;rounded=0;orthogonalLoop=1;jettySize=auto;html=1;exitX=1;exitY=0;exitDx=0;exitDy=0;entryX=0;entryY=0.5;entryDx=0;entryDy=0;dashed=1;" edge="1" parent="1" source="bSxx0ze4oYwnSJ1vdIZ4-5" target="bSxx0ze4oYwnSJ1vdIZ4-2">
          <mxGeometry relative="1" as="geometry" />
        </mxCell>
        <mxCell id="HPxKPCvTElO1WmBpE9tU-14" value="&amp;lt;&amp;lt;Extend&amp;gt;&amp;gt;" style="edgeLabel;html=1;align=center;verticalAlign=middle;resizable=0;points=[];" vertex="1" connectable="0" parent="HPxKPCvTElO1WmBpE9tU-13">
          <mxGeometry x="-0.0124" y="2" relative="1" as="geometry">
            <mxPoint as="offset" />
          </mxGeometry>
        </mxCell>
        <mxCell id="bSxx0ze4oYwnSJ1vdIZ4-5" value="Dostarcz przesyłkę" style="ellipse;whiteSpace=wrap;html=1;" parent="1" vertex="1">
          <mxGeometry x="-90" y="370" width="120" height="80" as="geometry" />
        </mxCell>
        <mxCell id="bSxx0ze4oYwnSJ1vdIZ4-6" value="Sprawdź stan przesyłki" style="ellipse;whiteSpace=wrap;html=1;" parent="1" vertex="1">
          <mxGeometry x="40" y="190" width="120" height="80" as="geometry" />
        </mxCell>
        <mxCell id="HPxKPCvTElO1WmBpE9tU-15" style="edgeStyle=orthogonalEdgeStyle;rounded=0;orthogonalLoop=1;jettySize=auto;html=1;exitX=0.5;exitY=0;exitDx=0;exitDy=0;exitPerimeter=0;entryX=0;entryY=1;entryDx=0;entryDy=0;endArrow=none;startFill=0;" edge="1" parent="1" source="bSxx0ze4oYwnSJ1vdIZ4-7" target="bSxx0ze4oYwnSJ1vdIZ4-5">
          <mxGeometry relative="1" as="geometry" />
        </mxCell>
        <mxCell id="HPxKPCvTElO1WmBpE9tU-32" style="edgeStyle=orthogonalEdgeStyle;rounded=0;orthogonalLoop=1;jettySize=auto;html=1;exitX=0.75;exitY=0.1;exitDx=0;exitDy=0;exitPerimeter=0;entryX=0;entryY=1;entryDx=0;entryDy=0;endArrow=none;startFill=0;" edge="1" parent="1" source="bSxx0ze4oYwnSJ1vdIZ4-7" target="HPxKPCvTElO1WmBpE9tU-30">
          <mxGeometry relative="1" as="geometry" />
        </mxCell>
        <mxCell id="bSxx0ze4oYwnSJ1vdIZ4-7" value="Kurier" style="shape=umlActor;verticalLabelPosition=bottom;verticalAlign=top;html=1;outlineConnect=0;" parent="1" vertex="1">
          <mxGeometry x="-120" y="610" width="30" height="60" as="geometry" />
        </mxCell>
        <mxCell id="HPxKPCvTElO1WmBpE9tU-12" style="edgeStyle=orthogonalEdgeStyle;rounded=0;orthogonalLoop=1;jettySize=auto;html=1;exitX=0;exitY=1;exitDx=0;exitDy=0;exitPerimeter=0;entryX=0.5;entryY=0;entryDx=0;entryDy=0;endArrow=none;startFill=0;" edge="1" parent="1" source="bSxx0ze4oYwnSJ1vdIZ4-8" target="bSxx0ze4oYwnSJ1vdIZ4-6">
          <mxGeometry relative="1" as="geometry" />
        </mxCell>
        <mxCell id="bSxx0ze4oYwnSJ1vdIZ4-8" value="Nadawca" style="shape=umlActor;verticalLabelPosition=bottom;verticalAlign=top;html=1;outlineConnect=0;" parent="1" vertex="1">
          <mxGeometry x="-200" y="70" width="30" height="60" as="geometry" />
        </mxCell>
        <mxCell id="bSxx0ze4oYwnSJ1vdIZ4-9" value="" style="endArrow=classic;html=1;rounded=0;entryX=0;entryY=1;entryDx=0;entryDy=0;exitX=1;exitY=0;exitDx=0;exitDy=0;dashed=1;" parent="1" source="bSxx0ze4oYwnSJ1vdIZ4-2" target="bSxx0ze4oYwnSJ1vdIZ4-1" edge="1">
          <mxGeometry width="50" height="50" relative="1" as="geometry">
            <mxPoint x="390" y="480" as="sourcePoint" />
            <mxPoint x="440" y="350" as="targetPoint" />
          </mxGeometry>
        </mxCell>
        <mxCell id="bSxx0ze4oYwnSJ1vdIZ4-10" value="&amp;lt;&amp;lt;Include&amp;gt;&amp;gt;" style="edgeLabel;html=1;align=center;verticalAlign=middle;resizable=0;points=[];" parent="bSxx0ze4oYwnSJ1vdIZ4-9" vertex="1" connectable="0">
          <mxGeometry x="-0.0106" y="-1" relative="1" as="geometry">
            <mxPoint as="offset" />
          </mxGeometry>
        </mxCell>
        <mxCell id="HPxKPCvTElO1WmBpE9tU-43" style="edgeStyle=orthogonalEdgeStyle;rounded=0;orthogonalLoop=1;jettySize=auto;html=1;exitX=0.5;exitY=0.5;exitDx=0;exitDy=0;exitPerimeter=0;entryX=0.5;entryY=1;entryDx=0;entryDy=0;endArrow=none;startFill=0;" edge="1" parent="1" source="HPxKPCvTElO1WmBpE9tU-1" target="bSxx0ze4oYwnSJ1vdIZ4-3">
          <mxGeometry relative="1" as="geometry" />
        </mxCell>
        <mxCell id="HPxKPCvTElO1WmBpE9tU-44" style="edgeStyle=orthogonalEdgeStyle;rounded=0;orthogonalLoop=1;jettySize=auto;html=1;exitX=0.5;exitY=0.5;exitDx=0;exitDy=0;exitPerimeter=0;entryX=0.5;entryY=1;entryDx=0;entryDy=0;endArrow=none;startFill=0;" edge="1" parent="1" source="HPxKPCvTElO1WmBpE9tU-1" target="bSxx0ze4oYwnSJ1vdIZ4-2">
          <mxGeometry relative="1" as="geometry" />
        </mxCell>
        <mxCell id="HPxKPCvTElO1WmBpE9tU-1" value="Pracownik" style="shape=umlActor;verticalLabelPosition=bottom;verticalAlign=top;html=1;outlineConnect=0;" vertex="1" parent="1">
          <mxGeometry x="370" y="510" width="30" height="60" as="geometry" />
        </mxCell>
        <mxCell id="HPxKPCvTElO1WmBpE9tU-20" style="edgeStyle=orthogonalEdgeStyle;rounded=0;orthogonalLoop=1;jettySize=auto;html=1;exitX=0;exitY=1;exitDx=0;exitDy=0;exitPerimeter=0;entryX=0.5;entryY=0;entryDx=0;entryDy=0;endArrow=none;startFill=0;" edge="1" parent="1" source="HPxKPCvTElO1WmBpE9tU-16" target="HPxKPCvTElO1WmBpE9tU-17">
          <mxGeometry relative="1" as="geometry" />
        </mxCell>
        <mxCell id="HPxKPCvTElO1WmBpE9tU-38" style="edgeStyle=orthogonalEdgeStyle;rounded=0;orthogonalLoop=1;jettySize=auto;html=1;exitX=0.5;exitY=0;exitDx=0;exitDy=0;exitPerimeter=0;endSize=16;endArrow=block;endFill=0;" edge="1" parent="1" source="HPxKPCvTElO1WmBpE9tU-16" target="HPxKPCvTElO1WmBpE9tU-22">
          <mxGeometry relative="1" as="geometry" />
        </mxCell>
        <mxCell id="HPxKPCvTElO1WmBpE9tU-16" value="Administrator&lt;div&gt;&lt;br&gt;&lt;/div&gt;" style="shape=umlActor;verticalLabelPosition=bottom;verticalAlign=top;html=1;outlineConnect=0;" vertex="1" parent="1">
          <mxGeometry x="665" y="10" width="30" height="60" as="geometry" />
        </mxCell>
        <mxCell id="HPxKPCvTElO1WmBpE9tU-18" style="edgeStyle=orthogonalEdgeStyle;rounded=0;orthogonalLoop=1;jettySize=auto;html=1;exitX=0.5;exitY=1;exitDx=0;exitDy=0;entryX=0.5;entryY=0;entryDx=0;entryDy=0;dashed=1;" edge="1" parent="1" source="HPxKPCvTElO1WmBpE9tU-17" target="bSxx0ze4oYwnSJ1vdIZ4-1">
          <mxGeometry relative="1" as="geometry" />
        </mxCell>
        <mxCell id="HPxKPCvTElO1WmBpE9tU-19" value="&amp;lt;&amp;lt;Include&amp;gt;&amp;gt;" style="edgeLabel;html=1;align=center;verticalAlign=middle;resizable=0;points=[];" vertex="1" connectable="0" parent="HPxKPCvTElO1WmBpE9tU-18">
          <mxGeometry x="-0.4667" relative="1" as="geometry">
            <mxPoint as="offset" />
          </mxGeometry>
        </mxCell>
        <mxCell id="HPxKPCvTElO1WmBpE9tU-17" value="Administruj systemem" style="ellipse;whiteSpace=wrap;html=1;" vertex="1" parent="1">
          <mxGeometry x="440" y="110" width="120" height="80" as="geometry" />
        </mxCell>
        <mxCell id="HPxKPCvTElO1WmBpE9tU-21" value="Użytkownik" style="shape=umlActor;verticalLabelPosition=bottom;verticalAlign=top;html=1;outlineConnect=0;" vertex="1" parent="1">
          <mxGeometry x="-10" y="800" width="30" height="60" as="geometry" />
        </mxCell>
        <mxCell id="HPxKPCvTElO1WmBpE9tU-22" value="Użytkownik" style="shape=umlActor;verticalLabelPosition=bottom;verticalAlign=top;html=1;outlineConnect=0;" vertex="1" parent="1">
          <mxGeometry x="770" y="160" width="30" height="60" as="geometry" />
        </mxCell>
        <mxCell id="HPxKPCvTElO1WmBpE9tU-29" style="edgeStyle=orthogonalEdgeStyle;rounded=0;orthogonalLoop=1;jettySize=auto;html=1;exitX=1;exitY=1;exitDx=0;exitDy=0;exitPerimeter=0;entryX=0.5;entryY=0;entryDx=0;entryDy=0;entryPerimeter=0;endSize=16;endArrow=block;endFill=0;" edge="1" parent="1" source="bSxx0ze4oYwnSJ1vdIZ4-7" target="HPxKPCvTElO1WmBpE9tU-21">
          <mxGeometry relative="1" as="geometry" />
        </mxCell>
        <mxCell id="HPxKPCvTElO1WmBpE9tU-31" style="edgeStyle=orthogonalEdgeStyle;rounded=0;orthogonalLoop=1;jettySize=auto;html=1;exitX=1;exitY=0;exitDx=0;exitDy=0;entryX=0;entryY=1;entryDx=0;entryDy=0;dashed=1;" edge="1" parent="1" source="HPxKPCvTElO1WmBpE9tU-30" target="bSxx0ze4oYwnSJ1vdIZ4-2">
          <mxGeometry relative="1" as="geometry" />
        </mxCell>
        <mxCell id="HPxKPCvTElO1WmBpE9tU-33" value="&amp;lt;&amp;lt;Extend&amp;gt;&amp;gt;" style="edgeLabel;html=1;align=center;verticalAlign=middle;resizable=0;points=[];" vertex="1" connectable="0" parent="HPxKPCvTElO1WmBpE9tU-31">
          <mxGeometry x="-0.1537" y="3" relative="1" as="geometry">
            <mxPoint as="offset" />
          </mxGeometry>
        </mxCell>
        <mxCell id="HPxKPCvTElO1WmBpE9tU-30" value="Zwrot Przesyłki" style="ellipse;whiteSpace=wrap;html=1;" vertex="1" parent="1">
          <mxGeometry x="10" y="470" width="120" height="80" as="geometry" />
        </mxCell>
        <mxCell id="HPxKPCvTElO1WmBpE9tU-34" value="Wyślij powiadomienie" style="ellipse;whiteSpace=wrap;html=1;" vertex="1" parent="1">
          <mxGeometry x="140" y="620" width="120" height="80" as="geometry" />
        </mxCell>
        <mxCell id="HPxKPCvTElO1WmBpE9tU-35" style="edgeStyle=orthogonalEdgeStyle;rounded=0;orthogonalLoop=1;jettySize=auto;html=1;exitX=0.5;exitY=0;exitDx=0;exitDy=0;entryX=0.325;entryY=1.013;entryDx=0;entryDy=0;entryPerimeter=0;dashed=1;" edge="1" parent="1" source="HPxKPCvTElO1WmBpE9tU-34" target="bSxx0ze4oYwnSJ1vdIZ4-2">
          <mxGeometry relative="1" as="geometry" />
        </mxCell>
        <mxCell id="HPxKPCvTElO1WmBpE9tU-36" value="&amp;lt;&amp;lt;Extend&amp;gt;&amp;gt;" style="edgeLabel;html=1;align=center;verticalAlign=middle;resizable=0;points=[];" vertex="1" connectable="0" parent="HPxKPCvTElO1WmBpE9tU-35">
          <mxGeometry x="-0.3931" y="-5" relative="1" as="geometry">
            <mxPoint as="offset" />
          </mxGeometry>
        </mxCell>
        <mxCell id="HPxKPCvTElO1WmBpE9tU-39" value="Użytkownik" style="shape=umlActor;verticalLabelPosition=bottom;verticalAlign=top;html=1;" vertex="1" parent="1">
          <mxGeometry x="485" y="690" width="30" height="60" as="geometry" />
        </mxCell>
        <mxCell id="HPxKPCvTElO1WmBpE9tU-40" style="edgeStyle=orthogonalEdgeStyle;rounded=0;orthogonalLoop=1;jettySize=auto;html=1;exitX=1;exitY=1;exitDx=0;exitDy=0;exitPerimeter=0;entryX=0.5;entryY=0;entryDx=0;entryDy=0;entryPerimeter=0;endSize=16;endArrow=block;endFill=0;" edge="1" parent="1" source="HPxKPCvTElO1WmBpE9tU-1" target="HPxKPCvTElO1WmBpE9tU-39">
          <mxGeometry relative="1" as="geometry" />
        </mxCell>
      </root>
    </mxGraphModel>
  </diagram>
</mxfile>
